<?xml version="1.0" encoding="utf-8"?>
<!-- Generator: Adobe Illustrator 25.4.1, SVG Export Plug-In . SVG Version: 6.00 Build 0)  -->
<svg version="1.1" id="Layer_1" xmlns="http://www.w3.org/2000/svg" xmlns:xlink="http://www.w3.org/1999/xlink" x="0px" y="0px"
	 viewBox="0 0 1000 756.2" style="enable-background:new 0 0 1000 756.2;" xml:space="preserve">
<style type="text/css">
	.st0{fill:url(#SVGID_1_);}
</style>
<linearGradient id="SVGID_1_" gradientUnits="userSpaceOnUse" x1="157.731" y1="383.7748" x2="850.3024" y2="376.9176">
	<stop  offset="0" style="stop-color:#0EE2A6"/>
	<stop  offset="0.1035" style="stop-color:#1DD29A"/>
	<stop  offset="0.3074" style="stop-color:#45A67C"/>
	<stop  offset="0.5887" style="stop-color:#84624C"/>
	<stop  offset="0.8682" style="stop-color:#C91717"/>
</linearGradient>
<path class="st0" d="M392,4.3c41.9,133,21.3,256.4-58.1,371.4c62.9-55.1,113.2-120.5,164.5-188.4c49.2,66.8,101.9,127.9,161.5,183.8
	C580.5,257.4,562,135.1,605,0c3.2,5.8,5.1,8.4,6.1,11.4c14.6,41.5,35.6,79.8,60.3,116c100.2,147,200.9,293.6,301.3,440.4
	c16.8,24.6,28.1,50.9,27.3,81.7c-1.5,55.7-50.2,105.6-106.2,106.3c-50.3,0.7-100.7,0.2-151,0.2c-210.3,0-420.6-0.1-630.9,0
	c-39.5,0-70.2-17-92-49c-29.6-43.4-24.1-88.3,2.6-129.8C72.4,499.9,125,424.3,176,347.7c56.9-85.4,114-170.6,169.5-256.8
	c15.1-23.4,25-50.2,37.2-75.5c2-4,3.9-8.1,5.8-12.2C389.7,3.6,390.8,4,392,4.3z"/>
</svg>
